<svg xmlns="http://www.w3.org/2000/svg" width="738.667" height="738.667" viewBox="0 0 554 554"><g transform="matrix(.1 0 0 -.1 0 554)"><path d="M2708 5223c7-3 16-2 19 1 4 3-2 6-13 5-11 0-14-3-6-6m18-39c-9-35-4-39 11-8 6 13 8 26 3 29-4 3-11-7-14-21m144-4c18-11 74-11 110 0 18 6 3 8-50 9-52 0-70-2-60-9"/><path d="M3016 5175c-33-18-104-19-155-4-25 7-47 8-71 1-26-7-29-10-12-11 23-1 30-15 12-24-6-3-5-4 2-3 7 2 12 11 11 21-1 14 4 16 30 11 18-4 61-9 97-12 96-7 110-12 110-34 0-17-6-20-53-19-29 1-62-1-73-5-10-3-32-2-49 3-31 10-17 12 115 16 19 1 36 6 38 11 4 14-49 17-74 4-12-7-43-11-68-9s-46 0-46-5c0-4-11-5-25-2-14 4-25 2-25-3s10-12 23-14c12-3 3-3-20-1-26 2-43-1-43-7 0-7 39-10 118-9 169 3 179 2 179-15 0-10-6-14-15-10-12 4-11 0 2-20 10-15 15-32 12-38-2-7-5-5-5 4-1 9-7 22-15 28-19 16-30-13-15-41 6-11 8-26 5-34-3-9 4-16 22-19 15-3 52-12 83-20 30-8 64-13 75-11 10 2 13 1 5-1-8-3 11-19 45-38 137-77 227-204 274-383 22-84 24-114 11-140-5-9-14-79-20-154s-14-144-17-153c-11-27-19-16-22 29-5 87-77 297-96 279-4-4-4-1-1 8 8 21-71 104-118 124-42 17-161 19-150 2 3-6 1-7-5-3s-53-7-104-24c-149-51-359-66-472-35-21 6-27 5-22-4 8-12-59-9-124 6-23 5-23 6 14 19 22 8 42 12 44 9 3-3 0-5-6-5-7 0-12-4-12-10 0-5 7-10 15-10s15 5 15 11 6 9 13 6c6-2 11-10 10-16-2-6 2-11 7-11 20 0 10 29-12 36-75 24-162 28-194 9-16-9-20-13-9-9 11 3 43 8 70 9 28 2 37 1 20-1-66-10-80-15-65-24 27-17 3-20-29-4s-33 16-61-11c-34-33-30-52 10-52 35 0 37 3 10 25l-21 17 21 13c12 7 20 8 20 2 0-5 6-10 14-10s17-7 20-16c10-27-2-29-23-3-11 13-22 21-26 17-4-3 3-16 15-28 16-16 19-25 11-33-7-7-14-7-23 1-22 17-36 0-33-40 1-22-2-35-8-31s-7-9-3-33c6-38 6-38-8-14-8 14-12 29-8 34 3 5-1 7-9 4-11-4-13 3-10 36 4 35 5 37 11 16 5-20 7-22 12-9 8 22 4 49-8 51-5 1-18-14-28-32-13-21-15-31-6-25 10 6 12 4 6-11-4-10-9-29-11-42-1-12-6-26-10-30s-5 11-2 33c5 30 4 35-4 22-6-9-11-32-13-50-2-17-8-45-14-60-7-16-12-36-11-45 1-11 4-7 9 8 6 17 8 19 9 7 1-10-6-29-15-42-9-14-14-36-11-51 4-22 3-24-10-12-11 11-15 54-18 183-3 143-6 170-21 184-16 15-16 15-11-1 8-23 2-23-31 0-28 18-52 23-52 10v-19c0-8 5-7 15 1 9 7 18 10 22 7 8-9-17-38-27-32-4 3-11-7-14-20-4-14-11-23-16-20-17 10-11-21 9-46 22-29 34-101 32-191-1-45 2-68 9-68 8 0 10 14 6 43-4 33-3 37 4 17 8-20 9-17 4 15-3 22-8 50-11 63s-1 22 6 22c16 0 23-158 9-200-6-20-7-17-3 10s3 32-7 22c-24-24 37-231 89-295 21-26 42-22 27 6-6 10-4 10 7 0 10-10 10-16 1-25-14-14-16-68-3-68 4 0 6-11 4-25-6-31 26-177 37-170 4 3 6-5 2-17-3-14-2-19 6-14s11 0 10-11c0-10 0-27 1-38 1-17 3-18 12-5s10 12 5-3c-7-21 34-108 46-101 5 4 8 0 6-7-4-23 32-68 50-62 14 4 14 3 3-5-12-9-12-12 1-26 9-8 20-12 24-8 5 4 6 3 2-2s-4-14 1-20c7-8-35-10-147-8-153 3-240-8-227-28 3-6 0-7-8-4-29 11-107-127-122-214l-6-40-187-4c-169-3-190-5-222-24-19-12-34-27-32-33 1-7-2-10-7-6-6 3-24-13-40-35-35-48-50-118-30-131 10-6 11-9 2-9-17 0-19-1314-3-1372 11-40 75-109 125-136 22-12 65-17 153-20 104-3 122-6 118-19-3-8-6-59-6-114v-99h-253c-278 0-313-5-378-59-19-16-48-53-64-82-26-47-30-64-30-129 0-58 5-85 23-118 13-23 27-40 32-37 6 4 7-1 3-11-5-13-2-16 9-12 10 4 15 1 14-10 0-10 6-16 16-16 10 1 16-3 15-9-1-7 16-21 38-32 40-20 55-20 1710-20h1670l46 27c96 56 141 134 141 240 0 79-23 136-78 191-70 70-79 71-379 77l-270 5-3 111-3 112 123 4c135 4 167 14 220 72 67 71 63 21 66 781 2 474 0 706-8 741-14 65-63 127-94 119-14-4-17-3-8 3 10 7 10 11-2 21-28 24-82 30-248 32l-168 1-6 26c-20 94-64 192-85 192-6 0-8 4-4 9 3 6-14 21-38 35-42 25-49 26-214 26-142 0-170 2-170 15 0 8 4 12 8 9 13-8 60 50 54 66-4 8-3 11 1 7 9-9 55 58 57 83 1 10 5 16 9 14 4-3 8-4 8-2s12 37 26 78c34 100 53 193 60 298 4 48 11 92 15 98 25 32 70 162 65 189-2 17-2 23 1 15 7-18 32 79 33 127 0 23 6 33 21 38 13 4 18 12 15 21s-1 12 4 9c17-10 11 137-9 242-23 116-64 239-79 236-6-2-9 3-6 10 10 26-99 182-119 170-6-3-7-2-4 4 8 13-37 56-48 46-4-5-5-3-1 4 8 14-69 67-84 58-5-3-12 0-16 6-5 8-3 9 7 4 9-5 11-5 4 2-17 16-112 53-137 53-20-1-21-2-5-11 9-5 17-14 17-19 0-6-8-10-17-10-14 0-15 2-5 9 11 7 11 9-2 14-8 3-14 15-13 26 0 11 5 17 9 15 5-3 10 1 13 8 3 8 26 14 57 16 29 2 59 7 68 13 10 6 3 8-25 5-22-2-30-1-17 1 12 2 22 9 22 15s9 8 19 5c20-5 31 9 24 31-3 6-9 12-14 12-4 0-5-8-2-17 6-15 5-16-9-3-9 8-12 17-7 18 16 6 9 23-8 21-10-1-45 3-77 10-33 7-77 10-98 7-26-4-37-3-33 4 8 13 5 13-29-5m117-12c-7-2-21-2-30 0-10 3-4 5 12 5 17 0 24-2 18-5m-66-9c-3-3-12-4-19-1-8 3-5 6 6 6 11 1 17-2 13-5m169-49c-23-17-36-19-36-6 0 5 8 12 18 14 32 9 37 6 18-8m-216-105c0-5-2-10-4-10-3 0-8 5-11 10-3 6-1 10 4 10 6 0 11-4 11-10m15-30c-3-5 2-10 12-10 15 0 16-2 3-10-17-11-36 3-26 19 4 6 9 11 12 11s2-4-1-10m108-10c11 0 18-3 14-6-3-3-25-3-49 2-38 6-40 8-18 14 14 3 27 3 28-2 2-4 13-8 25-8m-46-16c-3-3-12-4-19-1-8 3-5 6 6 6 11 1 17-2 13-5m179-19c18-13 18-14-4-8-12 3-25 9-28 14-8 14 10 11 32-6m-26-15c8-5 11-10 5-10-5 0-17 5-25 10s-10 10-5 10c6 0 17-5 25-10m35-50c13-6 15-9 5-9-8 0-22 4-30 9-18 12-2 12 25 0m62 4c-3-3-12-4-19-1-8 3-5 6 6 6 11 1 17-2 13-5m28-4c3-5 1-10-4-10-6 0-11 5-11 10 0 6 2 10 4 10 3 0 8-4 11-10m-32-41c10-11 17-23 14-25-2-2-13 7-25 21s-18 25-14 25 16-9 25-21m62 11c3-6-1-7-9-4-10 4-16 1-16-7 0-7-3-10-6-6-7 7 4 27 16 27 5 0 12-4 15-10m59-75c3-8 1-15-4-15-6 0-10 7-10 15s2 15 4 15 6-7 10-15m24-10c-3-3-9 2-12 12-6 14-5 15 5 6 7-7 10-15 7-18m-67-18c-10-9-11-8-5 6 3 10 9 15 12 12s0-11-7-18m123-133c3-8 2-12-4-9s-10 10-10 16c0 14 7 11 14-7m-1214-164c-19-13-30-13-30 0 0 6 10 10 23 10 18 0 19-2 7-10m73-27c59-7 61-18 3-18-24 0-42 3-40 7 2 3-12 6-31 5-21-1-30-4-22-9s7-8-5-8c-10 0-18 6-18 14 0 16 27 26 50 19 8-3 36-8 63-10m617 3c0-2-8-10-17-17-16-13-17-12-4 4s21 21 21 13m-383-22c-3-3-12-4-19-1-8 3-5 6 6 6 11 1 17-2 13-5m110 0c-3-3-12-4-19-1-8 3-5 6 6 6 11 1 17-2 13-5m466-5c12-7 29-21 40-33l18-21-6 25c-5 19-4 22 4 10 9-12 11-13 11-1 0 8 3 12 6 9 3-4 1-15-4-25-8-14-2-36 25-93 20-41 37-86 38-100s10-77 20-140c14-90 16-152 12-285-4-159-7-176-38-270-18-55-33-106-32-113 0-7-1-11-4-8-3 2-27-29-55-70-48-71-129-149-190-180-17-9-26-20-22-26s3-8-4-4c-6 3-45-5-87-19s-104-28-138-31c-73-7-183 14-254 47-26 13-52 23-58 23-5 1-23 13-40 29-17 15-37 25-45 21-8-3-11-2-8 2 4 4-19 36-52 71-70 76-134 201-160 312-20 84-40 297-40 430 0 93 22 246 39 279 14 26 14 35 1 27-31-19 2 25 67 90 43 44 61 46 140 18 148-53 211-65 319-59 108 5 288 42 279 57-4 5 0 6 7 4 7-3 38 3 68 14 64 23 112 26 143 10m-1242-13c-9-10-8-15 4-20 24-9 21-92-5-106-14-7-20-7-20 0 0 5 6 11 13 11 6 1-1 4-18 8-27 6-30 10-30 46 0 32 4 40 17 39 10-1 17 1 16 5-2 20 4 31 18 31 13 0 14-3 5-14m40-71-5-70-6 70c-6 70-4 94 9 78 4-4 5-39 2-78m464 59c11-8 15-14 10-14-16 0-84 26-92 34-13 13 60-5 82-20m90 16c-3-5 0-10 7-10 9 0 9-3-2-10-12-8-12-10-1-10 8 0 12-2 9-5s-13-2-22 1c-14 5-15 9-4 15 9 6 4 9-17 10l-30 1 30 8c17 4 31 8 33 9 2 0 0-3-3-9m138 3c-7-2-19-2-25 0-7 3-2 5 12 5s19-2 13-5m-70-10c-7-2-19-2-25 0-7 3-2 5 12 5s19-2 13-5m187-19c0-2-7-4-15-4s-15 4-15 10c0 5 7 7 15 4 8-4 15-8 15-10m53 9c-7-2-19-2-25 0-7 3-2 5 12 5s19-2 13-5m11-22c4-5-3-7-14-4-23 6-26 13-6 13 8 0 17-4 20-9m-677-23c-3-8-6-5-6 6-1 11 2 17 5 13 3-3 4-12 1-19m340 16c-3-3-12-4-19-1-8 3-5 6 6 6 11 1 17-2 13-5m58-4c-3-5-11-10-16-10-6 0-7 5-4 10 3 6 11 10 16 10 6 0 7-4 4-10m-695-20c0-5-2-10-4-10-3 0-8 5-11 10-3 6-1 10 4 10 6 0 11-4 11-10m1455-10c3-5 1-10-4-10-6 0-11 5-11 10 0 6 2 10 4 10 3 0 8-4 11-10m-1228-62c-3-8-6-5-6 6-1 11 2 17 5 13 3-3 4-12 1-19m33-29c0-6-4-7-10-4-5 3-10 1-10-4 0-6-9-11-20-11-21 0-27 14-11 24 5 4 11 0 14-6 3-9 7-7 12 4 7 18 25 15 25-3m-151-54c-1-29-1-29-9-5-4 14-8 34-9 45-1 16 1 17 9 5 5-8 9-28 9-45m-29 3c0-36-4-35-14 5-4 16-2 27 4 27 5 0 10-14 10-32m5-97c0-27-3-44-7-38-9 15-10 50-2 71 3 9 7 16 8 16 0 0 1-22 1-49m115 45c0-3-4-8-10-11-5-3-10-1-10 4 0 6 5 11 10 11 6 0 10-2 10-4m1467-68c-3-8-6-5-6 6-1 11 2 17 5 13 3-3 4-12 1-19m-1460-30c-3-8-6-5-6 6-1 11 2 17 5 13 3-3 4-12 1-19m19-56c-11-10-13 3-7 43l6 40 3-39c2-21 1-41-2-44m-150 22c-4-14-3-23 1-21 4 3 9-11 10-31 1-31 0-33-6-12l-8 25-5-25c-3-14-4-2-3 25 3 62 4 65 11 65 3 0 3-12 0-26m111-16c-3-8-6-5-6 6-1 11 2 17 5 13 3-3 4-12 1-19m40-120c-3-7-5-2-5 12s2 19 5 13c2-7 2-19 0-25m-20-40c-3-8-6-5-6 6-1 11 2 17 5 13 3-3 4-12 1-19m-50-31c10-9 14-17 11-17-4 0-14 8-24 18-17 16-17 16-12-6 7-25-7-21-21 7-8 14-6 17 10 16 11-1 27-9 36-18m110-319c-3-8-6-5-6 6-1 11 2 17 5 13 3-3 4-12 1-19m1167-104c3-8 2-12-4-9s-10 10-10 16c0 14 7 11 14-7m-1093-107c-10-9-11-8-5 6 3 10 9 15 12 12s0-11-7-18m60-100c-10-9-11-8-5 6 3 10 9 15 12 12s0-11-7-18m1314-45c-3-3-11 0-18 7-9 10-8 11 6 5 10-3 15-9 12-12m-1665 4c0-2-9-6-20-9s-20-1-20 4 9 9 20 9 20-2 20-4m-10-70c0-3-4-8-10-11-5-3-10-1-10 4 0 6 5 11 10 11 6 0 10-2 10-4m475-106v-89l-272-1c-150 0-274 3-277 8-7 12 39 130 61 154 15 17 34 19 252 18l236-1zm1181 75c17-17 64-127 64-150 0-13-35-15-268-15-148 0-271 2-273 4s-3 43-1 90l3 86h230c191 0 233-3 245-15m-1006-63c70-23 286-21 370 5l65 20-5-61-5-61-252-3-253-2v66c0 59 2 65 18 59 9-4 37-14 62-23m-1200-126c0-2-7-7-16-10-8-3-12-2-9 4 6 10 25 14 25 6m35-16c4-6-1-7-11-3-12 4-15 3-10-5 4-7 3-12-3-12-16 0-22 18-9 23 20 8 26 8 33-3m-48-23c2-3-3-7-11-10s-20 0-26 8c-10 12-8 13 10 10 13-2 25-6 27-8m38-35c-6-7-34 11-29 19 3 5 11 3 19-4 7-6 12-13 10-15m-105 8c0-5-5-10-11-10-5 0-7 5-4 10 3 6 8 10 11 10 2 0 4-4 4-10m2950-35c0-5-5-3-10 5s-10 20-10 25c0 6 5 3 10-5s10-19 10-25m-128 14c9-2 15-5 13-7s7-19 20-38c13-20 26-58 30-87 3-29 5-339 3-689-3-625-3-637-24-664-11-15-33-37-48-48-27-21-38-21-494-21h-467l-28 140c-16 77-34 151-40 165l-12 25-316 3c-291 2-317 1-331-15-9-10-23-56-32-103-10-47-24-116-33-153l-15-68-466 3-467 3-34 24c-63 45-61 23-61 760 0 485 3 677 12 698 6 15 10 35 9 43-2 8 0 12 4 8s24 2 44 13c35 19 62 19 1376 15 737-2 1348-5 1357-7m-2792-39c0-5-2-10-4-10-3 0-8 5-11 10-3 6-1 10 4 10 6 0 11-4 11-10m1670-1283c0-9 102-497 109-524 5-17 6-34 3-37-7-8-722-8-722 0 0 3 4 24 10 47 5 23 30 143 55 267s48 231 50 238c3 9 62 12 250 12 135 0 245-1 245-3m-691-424c-10-48-19-97-19-109s-7-25-16-28-135-6-280-6h-264v230h598zm1466-28V825h-550l-22 100c-12 55-22 106-22 113-1 10 62 12 297 10l297-3zm629-229c76-32 118-115 98-193-16-59-38-87-88-112l-42-21-1629 2-1629 3-41 27c-47 31-76 85-75 140 1 56 36 123 72 138 16 7 27 16 24 21s713 9 1636 9c1382 0 1645-2 1674-14"/><path d="M2841 2521c-12-7-221-760-221-795 0-7 9-21 20-31 16-15 26-17 48-9 28 10 32 20 67 149 30 112 66 245 89 335 14 52 38 143 54 203 23 85 26 112 18 130-12 23-52 33-75 18m-472-64c-15-12-73-60-130-106-57-47-113-93-124-103-11-9-46-38-77-64-32-25-60-54-63-64-6-19 20-70 35-70 5 0 16-7 25-17 46-45 371-303 383-303 7 0 10 5 6 12s-3 8 5 4c17-11 41 12 41 39 0 25-22 49-35 37-5-4-5-2-2 4 4 7-14 27-41 47-26 20-54 43-62 50-8 8-61 51-118 96-56 46-100 87-97 92 4 5 51 45 106 90 55 44 97 84 94 89-2 4 1 7 9 6 24-2 146 106 146 130 0 26-24 49-41 38-8-4-9-3-5 4 13 21-28 13-55-11m66-27c3-5 0-12-6-16-8-5-9-3-4 6 6 10 4 12-8 7-9-3-18-3-21 1s4 8 14 9c11 1 22-2 25-7m-18-605c0-8-4-12-9-9s-6 10-3 15c9 13 12 11 12-6m682 642c-27-21-30-45-6-71 12-14 92-82 177-151 85-70 156-130 158-134 3-8-40-47-188-168-52-43-106-88-120-100-14-13-28-23-31-23-19 0-15-43 5-67 30-35 47-28 159 65 51 42 143 118 205 167 96 77 112 94 112 119 0 33 7 27-249 235-96 77-181 141-190 141s-23-6-32-13m-549 2703c-9-6-10-10-3-10 6 0 15 5 18 10 8 12 4 12-15 0m-88-9c-11-7-11-9 0-14 9-3 15 1 15 9s-1 14-1 14c-1 0-7-4-14-9m148-1c-8-5-10-10-5-10 6 0 17 5 25 10s11 10 5 10c-5 0-17-5-25-10m138-17c7-3 16-2 19 1 4 3-2 6-13 5-11 0-14-3-6-6m-206-20c-12-2-20-8-17-13s13-6 23-3c14 5 15 4 4-8-10-11-16-11-33 0-14 8-25 9-31 3s-5-12 3-17c8-6 10-4 4 5-5 8-3 11 6 8 8-3 13-10 12-16-3-13 22-6 52 15 11 7 14 13 7 13s-10 5-7 10c3 6 5 9 3 9-2-1-13-4-26-6m188-3c-18-12-2-12 25 0 13 6 15 9 5 9-8 0-22-4-30-9m-354-13c-16-12-16-13 3-13 11 0 18 3 15 7-2 4 2 10 8 12 7 3 8 6 2 6-5 1-18-5-28-12m219 3c3-5 8-10 11-10 2 0 4 5 4 10 0 6-5 10-11 10-5 0-7-4-4-10m-190-30c-3-5-13-7-23-4-14 5-14 4-3-4 15-11 41-5 41 9 0 12-7 11-15-1m195-7c0-10 4-14 8-8s11 13 16 18c5 4 2 7-7 7-10 0-17-8-17-17m-275-3c-3-5-2-10 4-10 5 0 13 5 16 10 3 6 2 10-4 10-5 0-13-4-16-10m390-11c-4-12-10-17-14-12-3 6-14 10-24 10-12 0-16-6-11-19 3-10 1-18-5-18s-14-1-18-2c-5-1-11 11-14 28-6 24-7 21-8-17-1-39 2-48 19-52 12-3 30 3 43 14 12 10 16 18 10 19-7 0-13 5-13 11s7 9 15 5c8-3 15-2 15 3s14 14 32 22c27 11 29 14 12 20-29 12-32 11-39-12m-35-58c0-5-7-11-15-15-9-3-15 0-15 9 0 8 7 15 15 15s15-4 15-9m-246 33c-25-23-28-27-7-11 18 14 38 27 45 30 7 2 10 7 7 11-3 3-23-10-45-30"/><path d="M2641 5044c0-11 3-14 6-6 3 7 2 16-1 19-3 4-6-2-5-13m-291 2c0-2 7-6 15-10 8-3 15-1 15 4 0 6-7 10-15 10s-15-2-15-4m251-12c0-11 3-14 6-6 3 7 2 16-1 19-3 4-6-2-5-13m-315-2c-3-5 1-9 9-9s12 4 9 9c-3 4-7 8-9 8s-6-4-9-8m64-22c0-5 5-10 10-10 6 0 10 5 10 10 0 6-4 10-10 10-5 0-10-4-10-10m27-6c-4-4-7-14-7-23 0-11 3-12 11-4 6 6 10 16 7 23-2 6-7 8-11 4m-37-28c0-8 4-17 9-20 5-4 7 3 4 14-6 23-13 26-13 6m-15-20c3-11 0-23-7-28-9-5-10-8-1-8 19 0 25 18 13 37-11 17-11 16-5-1m-85-7c0-5 5-7 10-4 6 3 10 8 10 11 0 2-4 4-10 4-5 0-10-5-10-11m56-52c3-10 9-15 12-12s0 11-7 18c-10 9-11 8-5-6m-138-54c7-3 16-2 19 1 4 3-2 6-13 5-11 0-14-3-6-6m99-17c-3-8-23-18-44-22-35-7-36-8-13-15 36-10 59-10 35 1-15 7-16 9-4 9 18 1 45 28 37 37-3 3-8-2-11-10m37 2c3-10-2-22-12-27-10-7-12-11-4-11 7 0 23 10 35 21 12 12 16 18 8 14s-17-2-23 6c-8 11-9 10-4-3m-240-6c-6-4-4-13 7-24 14-14 18-14 23-2 3 8 0 13-7 11-7-1-11 4-9 11 2 14 1 14-14 4m-44-36c0-2 7-7 16-10 8-3 12-2 9 4-6 10-25 14-25 6m-23-31c-4-8-3-16 1-19s9 4 9 15c2 23-3 25-10 4m-52-66c-4-6-5-12-2-15 2-3 7 2 10 11 7 17 1 20-8 4m76-24c0-5 3-16 8-23 7-11 9-10 14 3 4 9 3 14-2 10-5-3-12 1-14 7-3 7-6 9-6 3m-108-74c0-11 5-18 9-15s5 11 1 19c-7 21-12 19-10-4m-12-47c0-11 3-14 6-6 3 7 2 16-1 19-3 4-6-2-5-13m-5-115c-3-17-5-46-5-63 1-18 5-7 10 28 9 63 6 88-5 35m86 6c0-16 2-22 5-12 2 9 2 23 0 30-3 6-5-1-5-18"/></g></svg>